<?xml version="1.0" standalone="no"?>
<!DOCTYPE svg PUBLIC "-//W3C//DTD SVG 20010904//EN"
 "http://www.w3.org/TR/2001/REC-SVG-20010904/DTD/svg10.dtd">
<svg version="1.0" xmlns="http://www.w3.org/2000/svg"
 width="464.000000pt" height="464.000000pt" viewBox="0 0 464.000000 464.000000"
 preserveAspectRatio="xMidYMid meet">
<metadata>
Created by potrace 1.11, written by Peter Selinger 2001-2013
</metadata>
<g transform="translate(0.000000,464.000000) scale(0.100000,-0.100000)"
fill="#000000" stroke="none">
<path d="M3280 3939 c-135 -94 -259 -180 -276 -192 -17 -12 -62 -43 -100 -69
l-69 -46 -602 -6 -603 -5 -112 81 c-258 186 -458 327 -478 338 -15 8 -25 8
-34 1 -7 -6 -16 -9 -19 -6 -4 3 -5 2 -2 -2 8 -10 -16 -33 -28 -26 -5 3 -7 1
-3 -5 3 -6 -3 -17 -15 -25 -21 -15 -21 -15 -14 -469 7 -521 14 -658 34 -658 3
0 6 -13 7 -29 1 -27 50 -117 82 -150 15 -16 15 -15 -92 -125 -107 -111 -99
-78 -104 -412 l-5 -293 133 -232 c74 -128 133 -240 132 -248 -1 -9 -1 -59 0
-111 0 -52 1 -148 1 -212 l1 -117 -67 -108 c-44 -73 -75 -140 -96 -203 -72
-230 -140 -469 -146 -515 -3 -27 -8 -60 -11 -72 l-4 -23 1527 0 c1444 1 1526
1 1501 18 -16 9 -28 20 -28 24 0 3 -6 13 -13 20 -8 7 -50 99 -95 203 -177 416
-207 480 -266 559 -81 110 -87 132 -85 306 3 129 9 173 30 190 4 3 9 15 13 28
4 12 11 22 16 22 14 0 26 55 120 554 107 573 103 545 89 562 -6 8 -9 14 -6 14
3 0 1 17 -5 37 -6 22 -33 62 -64 96 -30 32 -54 63 -54 69 0 9 13 27 60 85 9
11 6 34 -16 131 -5 25 30 150 105 372 l45 135 3 287 3 288 -67 55 c-37 30 -69
55 -72 55 -4 0 -116 -77 -251 -171z"/>
</g>
</svg>
